<svg width="18" height="16" viewBox="0 0 18 16" fill="none" xmlns="http://www.w3.org/2000/svg">
    <path d="M6.68889 15.6H10.5111C13.1952 15.6 14.5372 15.6 15.5013 14.9626C15.9186 14.6867 16.277 14.3322 16.5558 13.9192C17.2 12.9654 17.2 11.6375 17.2 8.98182C17.2 6.32611 17.2 4.99825 16.5558 4.04439C16.277 3.63145 15.9186 3.2769 15.5013 3.00099C14.8818 2.59145 14.1063 2.44507 12.9189 2.39274C12.3523 2.39274 11.8645 1.96792 11.7533 1.41818C11.5866 0.59357 10.8549 0 10.0049 0H7.19505C6.34513 0 5.61335 0.59357 5.44667 1.41818C5.33554 1.96792 4.84769 2.39274 4.28108 2.39274C3.09371 2.44507 2.31818 2.59145 1.69871 3.00099C1.28136 3.2769 0.923024 3.63145 0.644161 4.04439C0 4.99825 0 6.32611 0 8.98182C0 11.6375 0 12.9654 0.644161 13.9192C0.923024 14.3322 1.28136 14.6867 1.69871 14.9626C2.66276 15.6 4.00481 15.6 6.68889 15.6Z" fill="#333333"/>
    <path fill-rule="evenodd" clip-rule="evenodd" d="M8.6 6.85455C7.41259 6.85455 6.45 7.80696 6.45 8.98182C6.45 10.1567 7.41259 11.1091 8.6 11.1091C9.78741 11.1091 10.75 10.1567 10.75 8.98182C10.75 7.80696 9.78741 6.85455 8.6 6.85455ZM5.01667 8.98182C5.01667 7.02372 6.62098 5.43636 8.6 5.43636C10.579 5.43636 12.1833 7.02372 12.1833 8.98182C12.1833 10.9399 10.579 12.5273 8.6 12.5273C6.62098 12.5273 5.01667 10.9399 5.01667 8.98182Z" fill="white"/>
    <path fill-rule="evenodd" clip-rule="evenodd" d="M12.6611 6.14545C12.6611 5.75383 12.982 5.43636 13.3778 5.43636H14.3333C14.7291 5.43636 15.05 5.75383 15.05 6.14545C15.05 6.53708 14.7291 6.85455 14.3333 6.85455H13.3778C12.982 6.85455 12.6611 6.53708 12.6611 6.14545Z" fill="white"/>
</svg>
