<svg width="28" height="28" viewBox="0 0 28 28" fill="none" xmlns="http://www.w3.org/2000/svg">
    <rect width="28" height="28" rx="8" fill="#F5F5FF"/>
    <path d="M19.8334 9.83333L19.1106 19.9521C19.0483 20.8243 18.3226 21.5 17.4482 21.5H10.5519C9.67751 21.5 8.95177 20.8243 8.88947 19.9521L8.16671 9.83333H11.5V7.33333C11.5 6.8731 11.8731 6.5 12.3334 6.5H15.6667C16.1269 6.5 16.5 6.8731 16.5 7.33333V9.83333H19.8334Z" fill="white"/>
    <path d="M19.8334 9.83333L19.1106 19.9521C19.0483 20.8243 18.3226 21.5 17.4482 21.5H10.5519C9.67751 21.5 8.95177 20.8243 8.88947 19.9521L8.16671 9.83333M12.3334 13.1667V18.1667M15.6667 13.1667V18.1667M16.5 9.83333V7.33333C16.5 6.8731 16.1269 6.5 15.6667 6.5H12.3334C11.8731 6.5 11.5 6.8731 11.5 7.33333V9.83333M7.33337 9.83333H20.6667" stroke="#101010" stroke-width="1.5" stroke-linecap="round" stroke-linejoin="round"/>
</svg>
