<svg width="61" height="61" viewBox="0 0 61 61" fill="none" xmlns="http://www.w3.org/2000/svg">
<path d="M28.4773 0.0980835C24.8071 0.308353 20.3532 1.51263 17.0462 3.15656C9.15154 7.09435 3.35955 14.1097 1.04657 22.5205C-0.348857 27.6244 -0.348857 33.4737 1.04657 38.5775C3.89478 48.9764 12.0571 57.1387 22.4559 59.9869C25.2468 60.7515 27.2157 61 30.4844 61C37.6145 61 43.7506 58.8782 49.3132 54.539C56.2521 49.1102 60.4001 41.0817 60.9545 32.0783C61.0692 30.0903 60.8398 29.2874 59.9414 28.6948C59.1385 28.1596 58.4886 28.1405 57.6857 28.6375C56.7682 29.1918 56.5388 29.8227 56.4241 32.1739C56.0992 38.4437 53.4421 44.274 48.8353 48.8999C45.7768 51.9584 42.4698 53.9846 38.4747 55.2845C35.4353 56.2785 34.1928 56.4505 30.4844 56.4505C26.776 56.4505 25.5335 56.2785 22.4941 55.2845C18.499 53.9846 15.192 51.9584 12.1336 48.8999C8.3678 45.1342 5.88279 40.4509 4.85055 35.2323C4.48736 33.4546 4.48736 27.6435 4.85055 25.8657C5.88279 20.6472 8.3678 15.9639 12.1336 12.1982C16.7595 7.59135 22.5897 4.9343 28.8596 4.60934C30.083 4.55199 31.1917 4.37995 31.4975 4.22702C32.1475 3.90206 32.7783 2.92717 32.7783 2.23901C32.7783 1.49351 31.9945 0.480392 31.249 0.212776C30.58 -0.0166092 30.3506 -0.0166092 28.4773 0.0980835Z" fill="#274C77"/>
<path d="M56.4817 8.1267C56.2141 8.29874 49.8296 14.5877 42.2789 22.1192C34.7474 29.6507 28.4967 35.825 28.4011 35.8633C28.3055 35.9015 28.0379 35.6721 27.8085 35.3854C27.5791 35.0986 26.9101 34.334 26.3175 33.7032C25.7058 33.0724 23.756 30.9697 21.9783 29.0199C20.2006 27.0701 18.6522 25.388 18.5375 25.2924C18.0214 24.738 17.3332 24.4322 16.6642 24.4322C16.0716 24.4322 15.7849 24.566 15.2879 25.063C14.0263 26.3246 14.1983 27.2231 16.1481 29.3066C16.8362 30.0522 18.289 31.6387 19.3977 32.843C20.5064 34.0473 22.3606 36.0544 23.5267 37.3352C24.7118 38.5968 25.897 39.9157 26.1837 40.2598C26.4704 40.6039 26.9483 41.0053 27.2542 41.1582C27.8276 41.4641 28.8981 41.5406 29.2613 41.2921C29.8921 40.8906 59.4255 11.4528 59.6549 11.0131C60.1328 10.1147 59.999 9.25451 59.2726 8.48989C58.7374 7.89731 58.508 7.80173 57.8007 7.80173C57.3228 7.80173 56.7302 7.93554 56.4817 8.1267Z" fill="#274C77"/>
</svg>
