<svg width="18" height="25" viewBox="0 0 18 25" fill="none" xmlns="http://www.w3.org/2000/svg">
<path fill-rule="evenodd" clip-rule="evenodd" d="M8.85899 23.272C4.53928 23.272 0.850342 22.6018 0.850342 19.9175C0.850342 17.2333 4.51588 14.7554 8.85899 14.7554C13.1787 14.7554 16.8676 17.2093 16.8676 19.8935C16.8676 22.5767 13.2021 23.272 8.85899 23.272Z" stroke="white" stroke-width="1.5" stroke-linecap="round" stroke-linejoin="round"/>
<path fill-rule="evenodd" clip-rule="evenodd" d="M8.85052 11.0357C11.6853 11.0357 13.9829 8.7448 13.9829 5.91829C13.9829 3.09177 11.6853 0.799805 8.85052 0.799805C6.01574 0.799805 3.71707 3.09177 3.71707 5.91829C3.7075 8.73526 5.98915 11.0262 8.81436 11.0357C8.82712 11.0357 8.83882 11.0357 8.85052 11.0357Z" stroke="white" stroke-width="1.5" stroke-linecap="round" stroke-linejoin="round"/>
</svg>
