<svg width="50" height="50" viewBox="0 0 50 50" fill="none" xmlns="http://www.w3.org/2000/svg">
<rect width="50" height="50" rx="12" fill="#080532"/>
<path d="M16.1111 19.1429L22.8974 24.414L22.8996 24.4159C23.6532 24.9843 24.0302 25.2687 24.4431 25.3785C24.808 25.4756 25.1917 25.4756 25.5566 25.3785C25.9699 25.2686 26.348 24.9834 27.1029 24.414C27.1029 24.414 31.4556 20.9782 33.8889 19.1429M15 30.3431V21.6574C15 20.3772 15 19.7367 15.2422 19.2478C15.4553 18.8177 15.795 18.4683 16.2131 18.2491C16.6885 18 17.3112 18 18.5558 18H31.4447C32.6892 18 33.3106 18 33.786 18.2491C34.2041 18.4683 34.545 18.8177 34.758 19.2478C35 19.7362 35 20.376 35 21.6536V30.3469C35 31.6246 35 32.2634 34.758 32.7519C34.545 33.182 34.2041 33.532 33.786 33.7511C33.3111 34 32.69 34 31.4479 34H18.5521C17.31 34 16.688 34 16.2131 33.7511C15.795 33.532 15.4553 33.182 15.2422 32.7519C15 32.2629 15 31.6232 15 30.3431Z" stroke="white" stroke-width="2" stroke-linecap="round" stroke-linejoin="round"/>
</svg>
