<svg width="19" height="31" viewBox="0 0 19 31" fill="none" xmlns="http://www.w3.org/2000/svg">
<path fill-rule="evenodd" clip-rule="evenodd" d="M7.16902 2.83983C8.6867 1.3219 10.7452 0.469004 12.8917 0.46875H17.0542C17.3608 0.46875 17.6549 0.590569 17.8718 0.807408C18.0886 1.02425 18.2104 1.31834 18.2104 1.625V7.175C18.2104 7.48166 18.0886 7.77575 17.8718 7.99259C17.6549 8.20943 17.3608 8.33125 17.0542 8.33125H12.8917C12.8613 8.33125 12.8312 8.33723 12.8032 8.34885C12.7751 8.36047 12.7496 8.37751 12.7282 8.39898C12.7067 8.42045 12.6897 8.44595 12.678 8.474C12.6664 8.50206 12.6604 8.53213 12.6604 8.5625V11.5687H17.0542C17.23 11.5687 17.4035 11.6086 17.5615 11.6857C17.7195 11.7627 17.8578 11.8747 17.966 12.0132C18.0742 12.1518 18.1494 12.3131 18.1859 12.4851C18.2224 12.6571 18.2192 12.8351 18.1765 13.0056L16.789 18.5556C16.7264 18.8058 16.582 19.0279 16.3786 19.1866C16.1752 19.3453 15.9246 19.4314 15.6667 19.4312H12.6604V29.375C12.6604 29.6817 12.5386 29.9758 12.3218 30.1926C12.1049 30.4094 11.8108 30.5312 11.5042 30.5312H5.95419C5.64753 30.5312 5.35343 30.4094 5.13659 30.1926C4.91976 29.9758 4.79794 29.6817 4.79794 29.375V19.4312H1.79169C1.48503 19.4312 1.19093 19.3094 0.974095 19.0926C0.757256 18.8758 0.635437 18.5817 0.635437 18.275V12.725C0.635437 12.5732 0.665344 12.4228 0.723451 12.2825C0.781558 12.1422 0.866727 12.0148 0.974095 11.9074C1.08146 11.8 1.20893 11.7149 1.34921 11.6568C1.48949 11.5987 1.63985 11.5687 1.79169 11.5687H4.79794V8.5625C4.79819 6.416 5.65109 4.35751 7.16902 2.83983ZM12.8917 2.78125C11.3584 2.78125 9.88792 3.39034 8.80373 4.47454C7.71953 5.55873 7.11044 7.02922 7.11044 8.5625V12.725C7.11044 13.0317 6.98862 13.3258 6.77178 13.5426C6.55494 13.7594 6.26084 13.8812 5.95419 13.8812H2.94794V17.1187H5.95419C6.26084 17.1187 6.55494 17.2406 6.77178 17.4574C6.98862 17.6742 7.11044 17.9683 7.11044 18.275V28.2188H10.3479V18.275C10.3479 17.9683 10.4698 17.6742 10.6866 17.4574C10.9034 17.2406 11.1975 17.1187 11.5042 17.1187H14.7633L15.5726 13.8812H11.5042C11.1975 13.8812 10.9034 13.7594 10.6866 13.5426C10.4698 13.3258 10.3479 13.0317 10.3479 12.725V8.5625C10.3479 7.88786 10.6159 7.24084 11.093 6.7638C11.57 6.28675 12.217 6.01875 12.8917 6.01875H15.8979V2.78125H12.8917Z" fill="white"/>
</svg>
