<svg width="27" height="28" viewBox="0 0 27 28" fill="none" xmlns="http://www.w3.org/2000/svg">
<path d="M23.8333 27.4165H21.6762C20.9911 27.4165 20.334 27.1443 19.8495 26.6599C19.3651 26.1754 19.0929 25.5183 19.0929 24.8332V17.8969C19.1044 17.6249 19.0222 17.3571 18.86 17.1385C18.6977 16.9198 18.4653 16.7635 18.2016 16.6957C18.0482 16.6723 17.8916 16.6821 17.7423 16.7245C17.593 16.7668 17.4545 16.8407 17.3362 16.9411C17.2145 17.0444 17.1167 17.1731 17.0498 17.3181C16.9829 17.4631 16.9484 17.621 16.9487 17.7807V24.8332C16.9487 25.5183 16.6766 26.1754 16.1921 26.6599C15.7076 27.1443 15.0505 27.4165 14.3654 27.4165H12.2083C11.5232 27.4165 10.8661 27.1443 10.3816 26.6599C9.89715 26.1754 9.62498 25.5183 9.62498 24.8332V17.7807C9.62498 15.554 10.5095 13.4184 12.0841 11.8439C13.6586 10.2694 15.7941 9.38484 18.0208 9.38484C20.2475 9.38484 22.383 10.2694 23.9576 11.8439C25.5321 13.4184 26.4166 15.554 26.4166 17.7807V24.8332C26.4166 25.5183 26.1445 26.1754 25.66 26.6599C25.1755 27.1443 24.5185 27.4165 23.8333 27.4165ZM18.0208 14.0994C18.223 14.0875 18.4257 14.0875 18.6279 14.0994C19.4951 14.2662 20.2759 14.7331 20.8333 15.418C21.3907 16.1029 21.6891 16.9623 21.6762 17.8453V24.8332H23.8333V17.7807C23.8333 16.2391 23.2209 14.7607 22.1309 13.6706C21.0408 12.5806 19.5624 11.9682 18.0208 11.9682C16.4792 11.9682 15.0008 12.5806 13.9108 13.6706C12.8207 14.7607 12.2083 16.2391 12.2083 17.7807V24.8332H14.3654V17.7807C14.3654 16.8088 14.7497 15.8764 15.4345 15.1867C16.1193 14.4971 17.049 14.1062 18.0208 14.0994ZM5.74998 27.4165H3.16665C2.48151 27.4165 1.82442 27.1443 1.33996 26.6599C0.855486 26.1754 0.583315 25.5183 0.583315 24.8332V11.9165C0.583315 11.2314 0.855486 10.5743 1.33996 10.0898C1.82442 9.60534 2.48151 9.33317 3.16665 9.33317H5.74998C6.43512 9.33317 7.09221 9.60534 7.57667 10.0898C8.06114 10.5743 8.33331 11.2314 8.33331 11.9165V24.8332C8.33331 25.5183 8.06114 26.1754 7.57667 26.6599C7.09221 27.1443 6.43512 27.4165 5.74998 27.4165ZM3.16665 11.9165V24.8332H5.74998V11.9165H3.16665ZM4.45831 8.04151C3.69191 8.04151 2.94272 7.81424 2.30548 7.38845C1.66824 6.96266 1.17157 6.35747 0.878282 5.6494C0.584992 4.94134 0.508254 4.16221 0.657772 3.41053C0.807289 2.65885 1.17635 1.9684 1.71828 1.42647C2.2602 0.884538 2.95066 0.51548 3.70234 0.365963C4.45402 0.216445 5.23315 0.293183 5.94121 0.586472C6.64928 0.879762 7.25447 1.37643 7.68026 2.01367C8.10605 2.65091 8.33331 3.4001 8.33331 4.16651C8.33331 5.19422 7.92506 6.17984 7.19835 6.90654C6.47165 7.63325 5.48603 8.04151 4.45831 8.04151ZM4.45831 2.87484C4.20285 2.87484 3.95312 2.95059 3.7407 3.09252C3.52829 3.23445 3.36273 3.43618 3.26497 3.67221C3.16721 3.90823 3.14163 4.16794 3.19147 4.4185C3.24131 4.66906 3.36433 4.89921 3.54497 5.07985C3.72561 5.26049 3.95576 5.38351 4.20632 5.43335C4.45688 5.48319 4.71659 5.45761 4.95261 5.35985C5.18864 5.26209 5.39037 5.09653 5.5323 4.88412C5.67423 4.6717 5.74998 4.42197 5.74998 4.16651C5.74998 3.82393 5.61389 3.49539 5.37166 3.25316C5.12943 3.01092 4.80089 2.87484 4.45831 2.87484Z" fill="white"/>
</svg>
