<svg width="24" height="24" viewBox="0 0 24 24" fill="none" xmlns="http://www.w3.org/2000/svg">
<path d="M2.73831 12.7421H15.7332C16.1479 12.7421 16.4832 12.4061 16.4832 11.9921C16.4832 11.5781 16.1479 11.2421 15.7332 11.2421H2.78518L5.49831 8.529C5.79118 8.23612 5.79118 7.76137 5.49831 7.4685C5.20543 7.17563 4.73068 7.17563 4.43781 7.4685L0.00793457 12.0154L4.43781 16.5623C4.58443 16.7089 4.77606 16.782 4.96806 16.782C5.16006 16.782 5.35168 16.7089 5.49831 16.5623C5.79118 16.2694 5.79118 15.7946 5.49831 15.5018L2.73831 12.7421ZM22.4922 0H9.74216C8.91341 0 8.24216 0.671625 8.24216 1.5V8.25H9.75191V2.41463C9.75191 1.91363 10.1584 1.50713 10.6594 1.50713H21.5513C22.0526 1.50713 22.4588 1.91363 22.4588 2.41463L22.4824 21.5933C22.4824 22.0942 22.0763 22.5007 21.5749 22.5007H10.6598C10.1588 22.5007 9.75231 22.0942 9.75231 21.5933V15.7252L8.24256 15.7271V22.5C8.24256 23.3284 8.91381 24 9.74256 24H22.4922C23.3209 24 23.9926 23.3284 23.9926 22.5V1.5C23.9922 0.671625 23.3206 0 22.4922 0Z" fill="#ED2241"/>
</svg>
