<svg width="50" height="50" viewBox="0 0 50 50" fill="none" xmlns="http://www.w3.org/2000/svg">
<rect width="50" height="50" rx="12" fill="#080532"/>
<path d="M22.2248 16.3969C21.8873 15.5532 21.0702 15 20.1615 15H17.1052C15.9425 15 15 15.9423 15 17.105C15 26.988 23.0118 35 32.8945 35C34.0572 35 34.9995 34.0574 34.9995 32.8947L35 29.8377C35 28.9291 34.4469 28.1121 33.6033 27.7746L30.674 26.6033C29.9161 26.3001 29.0533 26.4366 28.4263 26.9591L27.6702 27.5897C26.7873 28.3254 25.4882 28.2669 24.6755 27.4542L22.5467 25.3234C21.734 24.5107 21.674 23.2126 22.4097 22.3297L23.0402 21.5737C23.5627 20.9466 23.7003 20.0835 23.3972 19.3257L22.2248 16.3969Z" stroke="white" stroke-width="2" stroke-linecap="round" stroke-linejoin="round"/>
</svg>
