<svg width="31" height="31" viewBox="0 0 31 31" fill="none" xmlns="http://www.w3.org/2000/svg">
<path d="M25.7812 5.16033C24.444 3.81007 22.8515 2.73945 21.0963 2.01086C19.3412 1.28227 17.4586 0.910287 15.5583 0.916583C7.59581 0.916583 1.10623 7.40617 1.10623 15.3687C1.10623 17.9207 1.77706 20.3999 3.03123 22.5874L0.989563 30.0833L8.64581 28.0708C10.7604 29.2228 13.1375 29.8353 15.5583 29.8353C23.5208 29.8353 30.0104 23.3458 30.0104 15.3833C30.0104 11.5187 28.5083 7.88742 25.7812 5.16033ZM15.5583 27.3853C13.4 27.3853 11.2854 26.802 9.43331 25.7083L8.99581 25.4457L4.44581 26.6416L5.65623 22.2083L5.36456 21.7562C4.16515 19.8415 3.52841 17.628 3.52706 15.3687C3.52706 8.74783 8.9229 3.352 15.5437 3.352C18.7521 3.352 21.7708 4.60617 24.0312 6.88117C25.1507 7.99513 26.0378 9.32029 26.6411 10.7798C27.2444 12.2392 27.5519 13.804 27.5458 15.3833C27.575 22.0041 22.1791 27.3853 15.5583 27.3853ZM22.15 18.402C21.7854 18.227 20.0062 17.352 19.6854 17.2208C19.35 17.1041 19.1166 17.0457 18.8687 17.3958C18.6208 17.7603 17.9354 18.577 17.7312 18.8103C17.5271 19.0583 17.3083 19.0874 16.9437 18.8978C16.5791 18.7228 15.4125 18.3291 14.0416 17.1041C12.9625 16.1416 12.2479 14.9603 12.0291 14.5958C11.825 14.2312 12 14.0416 12.1896 13.852C12.35 13.6916 12.5541 13.4291 12.7291 13.2249C12.9041 13.0207 12.9771 12.8603 13.0937 12.627C13.2104 12.3791 13.1521 12.1749 13.0646 11.9999C12.9771 11.8249 12.2479 10.0457 11.9562 9.31658C11.6646 8.61658 11.3583 8.70408 11.1396 8.6895H10.4396C10.1916 8.6895 9.81248 8.777 9.47706 9.14158C9.15623 9.50617 8.2229 10.3812 8.2229 12.1603C8.2229 13.9395 9.52081 15.6603 9.69581 15.8937C9.87081 16.1416 12.2479 19.7874 15.8646 21.3478C16.725 21.727 17.3958 21.9458 17.9208 22.1062C18.7812 22.3833 19.5687 22.3395 20.1958 22.252C20.8958 22.1499 22.3396 21.377 22.6312 20.5312C22.9375 19.6853 22.9375 18.9708 22.8354 18.8103C22.7333 18.6499 22.5146 18.577 22.15 18.402Z" fill="white"/>
</svg>
