<svg width="60" height="61" viewBox="0 0 60 61" fill="none" xmlns="http://www.w3.org/2000/svg">
<path d="M25.188 0.357751C31.0861 -0.558592 37.1234 0.294622 42.5366 2.8095C47.9497 5.32438 52.4955 9.38796 55.5992 14.4864C58.7029 19.5848 60.225 25.4891 59.9731 31.4526C59.7212 37.4161 57.7065 43.171 54.1839 47.9895C50.6613 52.808 45.789 56.4737 40.183 58.5231C34.577 60.5725 28.4893 60.9135 22.6895 59.503C16.8897 58.0925 11.6385 54.9938 7.59977 50.5989C3.56108 46.2039 0.916338 40.71 1.09142e-06 34.8119L4.47317 34.117C5.25205 39.1303 7.50008 43.8001 10.933 47.5359C14.3659 51.2716 18.8294 53.9054 23.7592 55.1044C28.689 56.3033 33.8637 56.0134 38.6287 54.2715C43.3938 52.5295 47.5353 49.4136 50.5295 45.3179C53.5237 41.2222 55.2362 36.3305 55.4503 31.2615C55.6644 26.1926 54.3706 21.1739 51.7325 16.8403C49.0944 12.5066 45.2304 9.05255 40.6292 6.9149C36.0281 4.77726 30.8963 4.05203 25.883 4.83092L25.188 0.357751Z" fill="#5BB5F8"/>
</svg>
