<svg width="32" height="63" viewBox="0 0 32 63" fill="none" xmlns="http://www.w3.org/2000/svg">
<path d="M0.447846 5.00596e-05C4.58443 0.0294547 8.67471 0.873331 12.4852 2.4835C16.2956 4.09367 19.7516 6.43859 22.6558 9.38439C25.56 12.3302 27.8556 15.8192 29.4114 19.6521C30.9672 23.4851 31.7529 27.5869 31.7235 31.7235C31.6941 35.8601 30.8502 39.9504 29.24 43.7608C27.6299 47.5713 25.2849 51.0273 22.3391 53.9315C19.3933 56.8357 15.9044 59.1312 12.0714 60.6871C8.23846 62.2429 4.13659 63.0286 9.58699e-06 62.9991L0.0335984 58.2742C3.54969 58.2992 7.03628 57.6314 10.2943 56.309C13.5523 54.9865 16.5179 53.0353 19.0219 50.5667C21.5258 48.0981 23.519 45.1605 24.8876 41.9216C26.2563 38.6828 26.9736 35.206 26.9986 31.6899C27.0235 28.1738 26.3557 24.6873 25.0333 21.4292C23.7108 18.1712 21.7596 15.2056 19.291 12.7017C16.8224 10.1977 13.8849 8.20456 10.646 6.83591C7.40709 5.46727 3.93035 4.74998 0.414259 4.72498L0.447846 5.00596e-05Z" fill="#5BB5F8"/>
</svg>
