<svg width="67" height="12" viewBox="0 0 67 12" fill="none" xmlns="http://www.w3.org/2000/svg">
<path opacity="0.35" d="M43.0509 2.68316C43.0509 1.48046 44.0259 0.505485 45.2285 0.505485H61.9799C63.1826 0.505485 64.1576 1.48046 64.1576 2.68316V8.71365C64.1576 9.91634 63.1826 10.8913 61.9799 10.8913H45.2285C44.0259 10.8913 43.0509 9.91634 43.0509 8.71364V2.68316Z" fill="white" stroke="white"/>
<path opacity="0.4" d="M65.6652 3.68857V7.70889C66.474 7.36839 67 6.5763 67 5.69873C67 4.82116 66.474 4.02907 65.6652 3.68857Z" fill="white"/>
<path d="M44.5585 3.1187C44.5585 2.5081 45.0535 2.01311 45.6641 2.01311H61.5444C62.155 2.01311 62.6499 2.50809 62.6499 3.11869V8.27811C62.6499 8.88871 62.155 9.3837 61.5444 9.3837H45.6641C45.0535 9.3837 44.5585 8.88871 44.5585 8.27811V3.1187Z" fill="white"/>
<path fill-rule="evenodd" clip-rule="evenodd" d="M29.8144 2.2889C32.0415 2.28899 34.1835 3.14476 35.7976 4.67931C35.9191 4.79779 36.1134 4.79629 36.2331 4.67596L37.395 3.50337C37.4556 3.44234 37.4894 3.35967 37.4889 3.27365C37.4884 3.18764 37.4537 3.10537 37.3923 3.04505C33.1558 -1.01502 26.4722 -1.01502 22.2357 3.04505C22.1743 3.10533 22.1395 3.18757 22.139 3.27359C22.1384 3.3596 22.1721 3.4423 22.2327 3.50337L23.3949 4.67596C23.5145 4.79647 23.709 4.79797 23.8304 4.67931C25.4448 3.14466 27.587 2.28889 29.8144 2.2889ZM29.8144 6.10385C31.038 6.10377 32.218 6.55861 33.1251 7.37997C33.2478 7.49654 33.441 7.49401 33.5606 7.37427L34.7212 6.20168C34.7823 6.14017 34.8162 6.05673 34.8153 5.97003C34.8144 5.88333 34.7788 5.8006 34.7165 5.74034C31.9543 3.17097 27.6767 3.17097 24.9146 5.74034C24.8522 5.80059 24.8166 5.88337 24.8158 5.9701C24.815 6.05683 24.849 6.14026 24.9102 6.20168L26.0704 7.37427C26.19 7.49401 26.3833 7.49654 26.506 7.37997C27.4124 6.55915 28.5915 6.10436 29.8144 6.10385ZM32.1391 8.67064C32.1409 8.75759 32.1067 8.84141 32.0446 8.90233L30.0371 10.9282C29.9783 10.9878 29.8981 11.0213 29.8144 11.0213C29.7306 11.0213 29.6504 10.9878 29.5916 10.9282L27.5837 8.90233C27.5217 8.84137 27.4876 8.75752 27.4894 8.67057C27.4913 8.58362 27.5289 8.50129 27.5935 8.44301C28.8755 7.35864 30.7532 7.35864 32.0352 8.44301C32.0998 8.50134 32.1373 8.5837 32.1391 8.67064Z" fill="white"/>
<path fill-rule="evenodd" clip-rule="evenodd" d="M16.0813 0.337644H15.0762C14.5211 0.337644 14.0711 0.787634 14.0711 1.34272V10.0534C14.0711 10.6085 14.5211 11.0585 15.0762 11.0585H16.0813C16.6364 11.0585 17.0864 10.6085 17.0864 10.0534V1.34272C17.0864 0.787634 16.6364 0.337644 16.0813 0.337644ZM10.3858 2.68283H11.3909C11.946 2.68283 12.396 3.13282 12.396 3.68791V10.0534C12.396 10.6085 11.946 11.0585 11.3909 11.0585H10.3858C9.83074 11.0585 9.38075 10.6085 9.38075 10.0534V3.68791C9.38075 3.13282 9.83074 2.68283 10.3858 2.68283ZM6.70054 5.02802H5.69546C5.14037 5.02802 4.69038 5.47801 4.69038 6.0331V10.0534C4.69038 10.6085 5.14037 11.0585 5.69546 11.0585H6.70054C7.25563 11.0585 7.70562 10.6085 7.70562 10.0534V6.0331C7.70562 5.47801 7.25563 5.02802 6.70054 5.02802ZM2.01016 7.03818H1.00508C0.44999 7.03818 0 7.48817 0 8.04326V10.0534C0 10.6085 0.44999 11.0585 1.00508 11.0585H2.01016C2.56525 11.0585 3.01524 10.6085 3.01524 10.0534V8.04326C3.01524 7.48817 2.56525 7.03818 2.01016 7.03818Z" fill="white"/>
</svg>
